Patient4_TMGait_0pt7_01_right_15_GRF.mot
version=1
nRows=32
nColumns=19
inDegrees=no
endheader
time	F1x	F1y	F1z	M1x	M1y	M1z	F2x	F2y	F2z	M2x	M2y	M2z	EC1x	EC1y	EC1z	EC2x	EC2y	EC2z
16.64	-8.4474	816.4565	83.6229	-281.8665	-90.2504	864.6322	0.81693	16.1032	8.081	2.3237	-2.9958	20.3183	-0.0592	0.0182	-0.0073	-0.0462	0.0165	0.9585
16.6512	-7.9945	810.756	82.4837	-279.8379	-88.0155	855.2803	0.28971	12.1544	5.3688	2.0719	-1.8345	15.3239	-0.0592	0.0182	-0.0073	-0.0462	0.0165	0.9585
16.6624	-7.1104	803.5893	81.1637	-277.2324	-85.4355	843.922	-0.14375	8.9135	3.1088	1.8753	-0.86545	11.2064	-0.0592	0.0182	-0.0073	-0.0462	0.0165	0.9585
16.6736	-5.7072	794.9232	79.6456	-274.0577	-82.5057	830.6365	-0.46289	6.5292	1.4052	1.7453	-0.13262	8.1545	-0.0592	0.0182	-0.0073	-0.0462	0.0165	0.9585
16.6849	-3.782	784.8483	77.9849	-270.3705	-79.2972	815.6277	-0.69587	4.9664	0.23857	1.6791	0.37677	6.1365	-0.0592	0.0182	-0.0073	-0.0462	0.0165	0.9585
16.6961	-1.3637	773.5776	76.203	-266.2685	-75.8544	799.2018	-0.841	4.0675	-0.47123	1.6601	0.68958	4.9481	-0.0592	0.0182	-0.0073	-0.0462	0.0165	0.9585
16.7073	1.4608	761.4315	74.4143	-261.8769	-72.3156	781.7699	-0.93793	3.6294	-0.84776	1.6616	0.86884	4.3414	-0.0592	0.0182	-0.0073	-0.0462	0.0165	0.9585
16.7185	4.6253	748.8363	72.6397	-257.3551	-68.729	763.8121	-0.98566	3.4433	-0.98824	1.6519	0.94729	4.0501	-0.0592	0.0182	-0.0073	-0.0462	0.0165	0.9585
16.7297	8.0773	736.2891	70.969	-252.8797	-65.1995	745.8788	-1.0131	3.2785	-1.0054	1.5848	0.98727	3.7975	-0.0592	0.0182	-0.0073	-0.0462	0.0165	0.9585
16.7409	11.8055	724.3822	69.4298	-248.6543	-61.7605	728.5781	-1.0173	2.9284	-0.96902	1.4126	1.0156	3.3206	-0.0592	0.0182	-0.0073	-0.0462	0.0165	0.9585
16.7521	15.8058	713.7649	68.1011	-244.8897	-58.4852	712.5878	-1.0012	2.1862	-0.93109	1.0787	1.0522	2.3811	-0.0592	0.0182	-0.0073	-0.0462	0.0165	0.9585
16.7634	20.08	705.1445	67.0754	-241.8098	-55.4574	698.6268	-0.95058	0.88103	-0.91366	0.53005	1.0936	0.77493	-0.0592	0.0182	-0.0073	-0.0462	0.0165	0.9585
16.7746	24.609	699.2066	66.4151	-239.6254	-52.7355	687.3883	-0.84522	-1.1072	-0.90771	-0.27348	1.1092	-1.6505	-0.0592	0.0182	-0.0073	-0.0462	0.0165	0.9585
16.7858	29.3463	696.503	66.2207	-238.4929	-50.4207	679.4347	-0.64388	-3.7969	-0.89368	-1.3366	1.0554	-4.9279	-0.0592	0.0182	-0.0073	-0.0462	0.0165	0.9585
16.797	34.2021	697.3022	66.5108	-238.4714	-48.5472	675.0381	-0.3004	-7.0433	-0.82592	-2.6021	0.85888	-8.8914	-0.0592	0.0182	-0.0073	-0.0462	0.0165	0.9585
16.8082	39.0463	701.4414	67.3402	-239.4696	-47.1918	674.0669	0.23002	-10.4422	-0.66483	-3.914	0.45465	-13.0413	-0.0592	0.0182	-0.0073	-0.0462	0.0165	0.9585
16.8194	43.7284	708.3065	68.6584	-241.2519	-46.3465	675.9521	0.98643	-13.2143	-0.3455	-4.9682	-0.24179	-16.4316	-0.0592	0.0182	-0.0073	-0.0462	0.0165	0.9585
16.8306	48.0823	716.8255	70.4048	-243.4418	-46.006	679.7142	1.9511	-14.0656	0.1892	-5.2641	-1.2857	-17.4971	-0.0592	0.0182	-0.0073	-0.0462	0.0165	0.9585
16.8419	51.999	725.6651	72.4289	-245.5913	-46.0742	684.1222	3.0662	-11.1188	0.9922	-4.0726	-2.6995	-13.9707	-0.0592	0.0182	-0.0073	-0.0462	0.0165	0.9585
16.8531	55.4283	733.3544	74.5122	-247.2282	-46.3766	687.8085	4.152	-1.8677	2.0834	-0.42365	-4.419	-2.8122	-0.0592	0.0182	-0.0073	-0.0462	0.0165	0.9585
16.8643	58.3998	738.4759	76.4201	-247.9188	-46.7107	689.4415	4.9173	16.6946	3.4268	6.843	-6.2591	19.6187	-0.0592	0.0182	-0.0073	-0.0462	0.0165	0.9585
16.8755	60.998	739.7423	77.8378	-247.2963	-46.7801	687.8025	4.8573	47.7318	4.8983	18.9371	-7.8457	57.1686	-0.0592	0.0182	-0.0073	-0.0462	0.0165	0.9585
16.8867	63.3274	735.9724	78.4881	-245.0407	-46.3188	681.7756	3.311	93.8384	6.2207	36.8371	-8.5478	112.9803	-0.0592	0.0182	-0.0073	-0.0462	0.0165	0.9585
16.8979	65.4306	725.9511	78.047	-240.8255	-45.0311	670.2217	-0.63416	155.9019	6.9258	60.8476	-7.423	188.1601	-0.0592	0.0182	-0.0073	-0.0462	0.0165	0.9585
16.9091	67.2196	708.2918	76.2409	-234.2574	-42.7071	651.8774	-7.9989	231.5976	6.3471	90.0159	-3.2903	279.928	-0.0592	0.0182	-0.0073	-0.0462	0.0165	0.9585
16.9204	68.4132	681.4787	72.8494	-224.879	-39.2467	625.4011	-19.2005	314.1046	3.7975	121.6385	4.7933	380.0331	-0.0592	0.0182	-0.0073	-0.0462	0.0165	0.9585
16.9316	68.6131	644.204	67.7657	-212.2762	-34.6954	589.6544	-32.6402	392.5117	-1.6303	151.4851	17.0942	475.0621	-0.0592	0.0182	-0.0073	-0.0462	0.0165	0.9585
16.9428	67.4059	595.9487	61.1411	-196.2613	-29.339	544.2297	-45.4594	457.722	-9.8053	176.0645	32.1906	553.6495	-0.0592	0.0182	-0.0073	-0.0462	0.0165	0.9585
16.954	64.4636	537.5393	53.3416	-177.0504	-23.6042	489.9333	-55.8573	506.8537	-19.4946	194.282	47.9312	612.0228	-0.0592	0.0182	-0.0073	-0.0462	0.0165	0.9585
16.9652	59.698	470.995	45.0141	-155.2352	-18.0748	428.6185	-62.9416	542.1359	-29.8455	207.0092	62.9199	652.8024	-0.0592	0.0182	-0.0073	-0.0462	0.0165	0.9585
16.9764	53.2111	399.3438	36.7766	-131.7419	-13.2304	363.0239	-66.6462	567.9409	-39.3186	216.009	75.4272	681.3221	-0.0592	0.0182	-0.0073	-0.0462	0.0165	0.9585
16.9876	45.2886	326.238	29.0669	-107.728	-9.3442	296.4115	-67.3211	588.7289	-47.2811	223.0224	84.8475	703.1396	-0.0592	0.0182	-0.0073	-0.0462	0.0165	0.9585
